<svg width="340" height="154" viewBox="0 0 340 154" fill="none" xmlns="http://www.w3.org/2000/svg">
<path d="M19.5257 46H28.3298L39.3658 12.21V46H47.6118V1.05H34.5917L23.9898 36.08L13.0777 1.05H0.181749V46H8.42775V12.21L19.5257 46ZM65.1287 46V1.05H56.2627V46H65.1287ZM112.772 31.244H104.34C102.914 37.32 98.5118 39.738 93.1798 39.738C86.6698 39.738 81.4618 34.034 81.4618 23.308C81.4618 12.892 86.6698 7.312 93.4898 7.312C98.4498 7.312 102.666 9.358 104.34 15.62H112.772C111.284 6.258 104.092 0.243998 93.5518 0.243998C80.4698 0.243998 72.2858 9.11 72.2858 23.308C72.2858 37.63 79.9738 46.806 93.3038 46.806C104.092 46.806 111.594 40.296 112.772 31.244ZM156.9 1.05H148.034V19.402H127.884V1.05H119.018V46H127.884V26.594H148.034V46H156.9V1.05ZM177.698 1.05L160.958 46H170.01L173.172 36.886H190.656L193.818 46H203.428L186.626 1.05H177.698ZM175.714 29.632L181.914 11.9L188.114 29.632H175.714ZM208.051 1.05V46H240.787V38.808H216.917V26.594H239.485V19.402H216.917V8.242H240.787V1.05H208.051ZM255.803 38.808V1.05H246.937V46H277.689V38.808H255.803ZM297.811 1.05L281.071 46H290.123L293.285 36.886H310.769L313.931 46H323.541L306.739 1.05H297.811ZM295.827 29.632L302.027 11.9L308.227 29.632H295.827ZM330.086 36.7V46H334.302L329.714 56.54H334.612L339.696 46.682V36.7H330.086ZM63.4612 61.242V99H72.3272V61.242H86.2152V54.05H49.6352V61.242H63.4612ZM132.133 54.05H123.267V72.402H103.117V54.05H94.251V99H103.117V79.594H123.267V99H132.133V54.05ZM152.792 99V54.05H143.926V99H152.792ZM176.565 79.284L182.269 80.338C187.043 81.206 190.577 82.632 190.577 86.476C190.577 91.312 185.555 92.738 181.587 92.738C176.255 92.738 171.667 90.754 170.675 84.182H162.119C162.925 93.854 170.241 99.806 181.277 99.806C190.329 99.806 199.505 95.28 199.505 86.042C199.505 76.742 191.445 73.828 184.129 72.526L178.239 71.472C174.643 70.79 171.977 69.054 171.977 65.892C171.977 61.862 176.565 60.312 180.657 60.312C184.873 60.312 189.461 62.048 190.143 67.318H198.699C198.265 58.7 190.329 53.244 181.029 53.244C172.721 53.244 163.111 57.212 163.111 66.264C163.111 74.076 169.249 77.858 176.565 79.284ZM223.806 99V54.05H214.94V99H223.806ZM247.579 79.284L253.283 80.338C258.057 81.206 261.591 82.632 261.591 86.476C261.591 91.312 256.569 92.738 252.601 92.738C247.269 92.738 242.681 90.754 241.689 84.182H233.133C233.939 93.854 241.255 99.806 252.291 99.806C261.343 99.806 270.519 95.28 270.519 86.042C270.519 76.742 262.459 73.828 255.143 72.526L249.253 71.472C245.657 70.79 242.991 69.054 242.991 65.892C242.991 61.862 247.579 60.312 251.671 60.312C255.887 60.312 260.475 62.048 261.157 67.318H269.713C269.279 58.7 261.343 53.244 252.043 53.244C243.735 53.244 234.125 57.212 234.125 66.264C234.125 74.076 240.263 77.858 247.579 79.284ZM37.7609 108.05V153H46.6269V133.594H69.1949V126.402H46.6269V115.242H70.4969V108.05H37.7609ZM84.6509 153.928C97.8749 153.928 110.113 136.992 110.113 121.042C110.113 112.516 106.285 105.672 97.5849 105.672C84.3609 105.672 72.0649 122.608 72.0649 138.5C72.0649 147.084 75.9509 153.928 84.6509 153.928ZM85.4629 151.492C80.3589 151.492 78.5609 147.258 78.5609 141.284C78.5609 127.364 87.9569 108.05 96.7729 108.05C101.819 108.05 103.675 112.284 103.675 118.316C103.675 132.236 94.2789 151.492 85.4629 151.492ZM132.175 135.392L141.103 153H150.961L140.979 133.532C146.559 131.176 149.101 126.836 149.101 121.69C149.101 112.266 143.459 108.05 128.641 108.05H113.885V153H122.751V135.392H132.175ZM122.751 114.994H129.633C135.647 114.994 139.987 116.544 139.987 121.752C139.987 126.154 136.949 128.51 130.067 128.51H122.751V114.994ZM177.332 108.05H166.978L183.16 135.516V153H192.026V135.64L208.58 108.05H198.474L187.81 126.836L177.332 108.05ZM215.332 153.928C228.556 153.928 240.794 136.992 240.794 121.042C240.794 112.516 236.966 105.672 228.266 105.672C215.042 105.672 202.746 122.608 202.746 138.5C202.746 147.084 206.632 153.928 215.332 153.928ZM216.144 151.492C211.04 151.492 209.242 147.258 209.242 141.284C209.242 127.364 218.638 108.05 227.454 108.05C232.5 108.05 234.356 112.284 234.356 118.316C234.356 132.236 224.96 151.492 216.144 151.492ZM254.49 108.05H245.624V133.966C245.624 148.784 251.142 153.806 264.286 153.806C277.43 153.806 282.824 148.784 282.824 133.966V108.05H273.958V134.028C273.958 141.964 272.47 146.738 264.286 146.738C256.102 146.738 254.49 141.964 254.49 134.028V108.05ZM289.831 153H299.007V143.7H289.831V153Z" fill="white"/>
</svg>
