<svg width="298" height="46" viewBox="0 0 298 46" fill="none" xmlns="http://www.w3.org/2000/svg">
<path d="M7.41763 0.0499985H0.473633L16.3456 27.454V45H22.6696V27.578L39.1616 0.0499985H32.2176L19.6936 21.998L7.41763 0.0499985ZM69.7291 28.446C69.7291 16.356 61.4831 11.086 53.7331 11.086C45.9831 11.086 37.7371 16.356 37.7371 28.446C37.7371 40.536 45.9831 45.806 53.7331 45.806C61.4831 45.806 69.7291 40.536 69.7291 28.446ZM53.7331 40.846C48.6491 40.846 43.7511 37.312 43.7511 28.446C43.7511 19.332 48.6491 16.046 53.7331 16.046C58.8171 16.046 63.7151 19.58 63.7151 28.446C63.7151 37.002 58.8171 40.846 53.7331 40.846ZM80.0114 45.868C85.0334 45.868 89.9314 39.544 96.6274 26.152H97.1854L93.2794 36.568C92.3494 39.048 91.6054 40.536 91.6054 41.9C91.6054 44.194 92.7214 45.93 96.0074 45.93C101.029 45.93 105.059 39.668 107.353 34.088H105.865C103.819 38.614 101.029 42.52 98.7354 42.52C97.9294 42.52 97.6194 42.086 97.6194 41.156C97.6194 40.226 98.4254 38.118 98.9214 36.692L107.415 12.14H100.223C100.037 16.79 96.3174 24.478 93.7754 29.19C89.0014 38.304 85.3434 41.528 83.1114 41.528C82.3054 41.528 81.8094 40.908 81.8714 39.544C82.0574 36.754 85.4674 29.376 88.7534 21.316C89.9314 18.526 90.8614 16.356 90.8614 14.806C90.8614 12.946 89.8074 11.334 87.5754 11.334C83.0494 11.334 78.3994 16.356 75.5474 21.812H77.0354C79.3914 17.906 82.1194 14.62 83.9794 14.62C84.4754 14.62 84.7854 14.868 84.7854 15.674C84.7854 16.604 83.7934 19.084 83.0494 21.13C79.9494 27.95 75.5474 36.816 75.5474 41.466C75.5474 44.008 77.0974 45.868 80.0114 45.868ZM131.567 17.534V11.52C130.947 11.458 130.451 11.458 129.893 11.458C125.553 11.582 122.143 13.69 120.469 17.472V11.644H114.951V45H120.593V27.516C120.593 20.2 123.197 17.286 128.405 17.286C129.335 17.286 130.389 17.41 131.567 17.534Z" fill="white"/>
<path d="M158.238 3.274V11.644H152.968V16.17H158.238V36.63C158.238 43.574 159.726 45 166.112 45H170.204V40.288H167.352C164.128 40.288 163.88 39.42 163.88 35.948V16.17H170.204V11.644H163.88V3.274H158.238ZM180.57 30.182H206.238C206.982 19.642 200.844 11.086 190.676 11.086C181.562 11.086 174.494 17.844 174.494 28.384C174.494 38.242 180.322 45.806 190.862 45.806C198.984 45.806 204.254 41.094 205.804 35.328H199.976C198.55 38.614 195.822 40.846 190.862 40.846C185.902 40.846 180.818 37.374 180.57 30.182ZM180.632 25.346C181.128 18.65 185.654 15.922 190.676 15.922C196.628 15.922 200.162 20.634 200.286 25.346H180.632ZM232.282 42.21C231.414 42.21 231.166 41.714 231.166 40.784C231.166 39.916 232.034 37.808 232.53 36.382L241.458 11.458L240.466 10.9C239.412 12.202 237.428 13.318 234.948 13.318L233.15 18.278H232.964C233.212 14.31 231.538 11.272 227.384 11.272C218.766 11.272 208.784 26.524 208.784 37.56C208.784 42.334 210.52 45.682 214.426 45.682C219.944 45.682 225.648 35.824 228.624 29.376H229.182L226.764 36.196C225.834 38.676 225.09 40.164 225.09 41.59C225.09 43.822 226.206 45.558 229.492 45.558C234.514 45.558 238.606 39.296 240.838 33.778H239.412C237.304 38.304 234.576 42.21 232.282 42.21ZM216.968 41.156C215.48 41.156 214.922 39.606 214.922 36.816C214.922 28.012 222.424 14.434 227.942 14.434C229.988 14.434 230.732 15.984 230.732 18.65C230.732 20.696 230.236 22.68 229.554 24.664C227.198 31.484 220.626 41.156 216.968 41.156ZM252.18 45V26.896C252.18 19.766 255.404 15.984 260.24 15.984C266.378 15.984 267.37 20.448 267.37 25.594V45H273.012V26.896C273.012 19.766 276.236 15.984 281.072 15.984C287.21 15.984 288.202 20.448 288.202 25.594V45H293.844V23.92C293.844 16.294 290.806 11.086 283.056 11.086C278.406 11.086 274.5 12.884 271.834 16.976C270.346 13.318 267.308 11.086 262.224 11.086C257.202 11.086 254.102 13.504 252.18 16.666V11.644H246.538V45H252.18Z" fill="white"/>
</svg>
